<svg width="30px" height="30px" viewBox="0 0 30 30" version="1.1" xmlns="http://www.w3.org/2000/svg" xmlns:xlink="http://www.w3.org/1999/xlink">
    <!-- Generator: Sketch 45.1 (43504) - http://www.bohemiancoding.com/sketch -->
    <desc>Created with Sketch.</desc>
    <defs>
        <path d="M15,0 C23.2709,0 30,6.729 30,15 C30,23.27 23.2709,30 15,30 C6.7291,30 0,23.27 0,15 C0,6.729 6.7291,0 15,0 Z M15,28.742 C22.5773,28.742 28.7418,22.577 28.7418,15 C28.7418,7.422 22.5773,1.257 15,1.257 C7.4227,1.257 1.2582,7.422 1.2582,15 C1.2582,22.577 7.4227,28.742 15,28.742 Z M23.0943,9.16 C23.3425,8.918 23.7406,8.923 23.9834,9.172 C24.2261,9.421 24.2206,9.819 23.9715,10.061 L12.9006,20.84 C12.8615,20.879 12.8125,20.9 12.7661,20.927 C12.7434,20.94 12.7234,20.96 12.6988,20.97 C12.6234,21.001 12.5425,21.018 12.4625,21.018 C12.3825,21.018 12.3015,21.001 12.2261,20.97 C12.2015,20.96 12.1815,20.94 12.1588,20.927 C12.1125,20.9 12.0634,20.879 12.0243,20.84 L6.0288,15.003 C5.7797,14.76 5.7743,14.363 6.0161,14.114 C6.2588,13.865 6.657,13.86 6.9061,14.101 L12.4625,19.51 L23.0943,9.16 Z" id="path-1"></path>
    </defs>
    <g id="Page-1" stroke="none" stroke-width="1" fill="none" fill-rule="evenodd">
        <g id="desktop" transform="translate(-125.000000, -1314.000000)">
            <g id="Page-1">
                <g id="Group-53" transform="translate(125.000000, 1314.000000)">
                    <mask id="mask-2" fill="white">
                        <use xlink:href="#path-1"></use>
                    </mask>
                    <g id="Clip-52"></g>
                    <polygon id="Fill-51" fill="#3FA2F7" mask="url(#mask-2)" points="-5 35 35 35 35 -5 -5 -5"></polygon>
                </g>
            </g>
        </g>
    </g>
</svg>