<svg width="108px" height="29px" viewBox="0 0 108 29" version="1.1" xmlns="http://www.w3.org/2000/svg" xmlns:xlink="http://www.w3.org/1999/xlink">
    <!-- Generator: Sketch 45.1 (43504) - http://www.bohemiancoding.com/sketch -->
    <desc>Created with Sketch.</desc>
    <defs>
        <path d="M15.0201676,0.96526 L15.1952324,0.96526 C23.0034509,1.01165688 29.3186,7.2617647 29.3186,14.965 C29.3186,22.697 22.9562,28.965 15.1077,28.965 C7.2592,28.965 0.8968,22.697 0.8968,14.965 C0.8968,7.2617647 7.21194906,1.01165688 15.0201676,0.96526 L15.0201676,0.96526 Z M107.5868,12.605 L106.1283,12.605 L104.2794,17.895 L102.3663,12.605 L100.5978,12.605 L103.4434,20.079 L102.1251,23.652 L103.7971,23.652 L107.5868,13.4403221 L107.5868,12.605 L107.5868,12.605 Z M15.1077,26.891 C21.7934,26.891 27.2133,21.552 27.2133,14.965 C27.2133,8.379 21.7934,3.039 15.1077,3.039 C8.4219,3.039 3.0021,8.379 3.0021,14.965 C3.0021,21.552 8.4219,26.891 15.1077,26.891 Z M11.0633,19.556 C9.918,18.462 9.3362,16.935 9.318,14.956 C9.318,12.995 9.8998,11.468 11.0451,10.374 C12.1904,9.281 13.5902,8.743 15.2263,8.743 C16.5534,8.743 17.6623,9.055 18.5531,9.697 C19.4257,10.34 20.0438,11.259 20.371,12.422 L18.4804,12.874 C18.1531,12.075 17.735,11.485 17.226,11.121 C16.7352,10.739 16.0625,10.565 15.2263,10.565 C14.0992,10.565 13.172,10.93 12.463,11.693 C11.7359,12.44 11.3723,13.533 11.3723,14.956 C11.3723,16.38 11.7359,17.473 12.463,18.237 C13.172,18.983 14.0992,19.365 15.2263,19.365 C16.0625,19.365 16.7352,19.191 17.226,18.809 C17.735,18.445 18.1531,17.855 18.4804,17.056 L20.371,17.508 C20.0438,18.671 19.4439,19.59 18.5531,20.233 C17.6623,20.875 16.5534,21.187 15.2263,21.187 C13.5902,21.187 12.1904,20.649 11.0633,19.556 Z M39.4733,15.008 L39.4573,14.993 C39.4573,13.23 39.9717,11.857 40.9846,10.874 C41.9974,9.891 43.2353,9.407 44.6823,9.407 C45.8559,9.407 46.8366,9.688 47.6243,10.265 C48.396,10.842 48.9427,11.669 49.232,12.715 L47.56,13.12 C47.2707,12.403 46.9009,11.872 46.4507,11.544 C46.0167,11.201 45.4218,11.045 44.6823,11.045 C43.6855,11.045 42.8656,11.373 42.2386,12.059 C41.5955,12.73 41.274,13.713 41.274,14.993 C41.274,16.272 41.5955,17.255 42.2386,17.942 C42.8656,18.613 43.6855,18.956 44.6823,18.956 C45.4218,18.956 46.0167,18.8 46.4507,18.457 C46.9009,18.129 47.2707,17.598 47.56,16.881 L49.232,17.286 C48.9427,18.332 48.4121,19.159 47.6243,19.736 C46.8366,20.313 45.8559,20.594 44.6823,20.594 C43.2353,20.594 41.9974,20.111 41.0007,19.128 C39.9878,18.145 39.4733,16.771 39.4733,15.008 Z M50.6147,16.537 C50.6147,15.398 50.9683,14.431 51.6918,13.651 C52.4153,12.871 53.3799,12.481 54.5857,12.481 C55.8075,12.481 56.7721,12.871 57.4956,13.651 C58.203,14.431 58.5727,15.398 58.5727,16.537 C58.5727,17.676 58.203,18.644 57.4956,19.424 C56.7721,20.189 55.8075,20.579 54.5857,20.579 C53.3799,20.579 52.4153,20.189 51.6918,19.424 C50.9683,18.644 50.6147,17.676 50.6147,16.537 Z M52.3831,16.537 C52.3831,17.255 52.576,17.864 52.978,18.394 C53.3638,18.909 53.9104,19.174 54.6017,19.174 C55.3091,19.174 55.8557,18.909 56.2416,18.394 C56.6274,17.864 56.8364,17.255 56.8364,16.537 C56.8364,15.82 56.6274,15.211 56.2416,14.681 C55.8557,14.166 55.3091,13.916 54.6017,13.916 C53.9104,13.916 53.3638,14.166 52.978,14.681 C52.576,15.211 52.3831,15.82 52.3831,16.537 Z M60.7592,20.469 L60.7592,12.637 L62.4312,12.637 L62.4312,13.979 C63.0743,12.996 63.8942,12.512 64.8749,12.512 C65.4054,12.512 65.8877,12.652 66.3057,12.949 C66.7237,13.245 66.997,13.635 67.1096,14.119 C67.3829,13.604 67.7527,13.198 68.1867,12.918 C68.6208,12.637 69.1031,12.496 69.6337,12.496 C70.3732,12.496 70.9359,12.699 71.3378,13.136 C71.7558,13.573 71.9487,14.15 71.9487,14.852 L71.9487,20.485 L70.2767,20.485 L70.2767,15.211 C70.2767,14.79 70.1642,14.478 69.9552,14.259 C69.7462,14.025 69.4568,13.932 69.087,13.932 C68.5565,13.932 68.1064,14.228 67.7527,14.852 C67.3829,15.461 67.19,16.288 67.19,17.318 L67.19,20.469 L65.518,20.469 L65.518,15.211 C65.518,14.79 65.4054,14.462 65.1964,14.244 C64.9874,14.025 64.698,13.916 64.3283,13.916 C63.7977,13.916 63.3476,14.228 62.9778,14.868 C62.608,15.492 62.4312,16.366 62.4312,17.489 L62.4312,20.469 L60.7592,20.469 Z M74.6014,23.652 L74.6014,12.59 L76.2734,12.59 L76.2734,13.495 C76.4342,13.245 76.7075,12.996 77.1255,12.793 C77.5274,12.574 77.9776,12.465 78.476,12.465 C79.6496,12.465 80.5499,12.824 81.1608,13.542 C81.7717,14.259 82.0772,15.258 82.0772,16.537 C82.0772,17.786 81.7717,18.784 81.1608,19.502 C80.5338,20.22 79.6335,20.594 78.4438,20.594 C77.9776,20.594 77.5435,20.485 77.1577,20.298 C76.7718,20.111 76.4824,19.876 76.2734,19.596 L76.2734,23.652 L74.6014,23.652 Z M76.193,16.522 L76.1609,16.522 C76.1609,17.318 76.3538,17.957 76.7397,18.441 C77.1255,18.909 77.6239,19.143 78.2348,19.143 C78.8457,19.143 79.3441,18.909 79.73,18.441 C80.1158,17.957 80.3087,17.318 80.3087,16.522 C80.3087,15.726 80.1319,15.086 79.7461,14.618 C79.3602,14.135 78.8618,13.901 78.2509,13.901 C77.64,13.901 77.1416,14.135 76.7557,14.618 C76.3699,15.086 76.193,15.726 76.193,16.522 Z M83.5884,18.207 L83.5724,18.207 C83.5724,17.411 83.8939,16.771 84.5531,16.319 C85.1961,15.866 86.0321,15.632 87.0932,15.632 L88.4919,15.632 L88.4919,15.289 C88.4919,14.821 88.3311,14.478 88.0417,14.259 C87.7363,14.041 87.3665,13.932 86.9003,13.932 C86.1607,13.932 85.6624,14.275 85.3891,14.962 L83.8617,14.649 C84.0386,13.994 84.3923,13.464 84.9389,13.074 C85.5016,12.683 86.1607,12.496 86.9164,12.496 C89.0867,12.496 90.1639,13.526 90.1639,15.601 L90.1639,20.485 L88.7491,20.485 L88.5723,19.455 C88.0096,20.22 87.1736,20.61 86.0804,20.594 C85.3569,20.594 84.7621,20.391 84.2958,19.986 C83.8296,19.58 83.5884,18.987 83.5884,18.207 Z M85.3408,18.207 C85.3408,18.503 85.4212,18.722 85.5981,18.893 C85.7749,19.081 86.0161,19.174 86.3537,19.174 C86.9164,19.174 87.4147,18.987 87.8488,18.644 C88.2668,18.285 88.4758,17.801 88.4758,17.162 L88.4758,16.99 L87.0128,16.99 C86.4984,16.99 86.0964,17.099 85.791,17.318 C85.5016,17.536 85.3408,17.832 85.3408,18.207 Z M92.5272,20.469 L92.5272,12.621 L94.1992,12.621 L94.1992,13.963 C94.4886,13.495 94.8744,13.12 95.3407,12.871 C95.8069,12.605 96.3053,12.481 96.8358,12.481 C97.5432,12.481 98.122,12.683 98.5561,13.089 C98.9901,13.51 99.1991,14.088 99.1991,14.837 L99.1991,20.469 L97.5271,20.469 L97.5271,15.352 C97.5271,14.4 97.1252,13.916 96.2731,13.916 C95.7265,13.916 95.2281,14.228 94.8262,14.837 C94.4082,15.445 94.1992,16.257 94.1992,17.286 L94.1992,20.469 L92.5272,20.469 Z" id="path-1"></path>
    </defs>
    <g id="Page-1" stroke="none" stroke-width="1" fill="none" fill-rule="evenodd">
        <g id="desktop" transform="translate(-125.000000, -44.000000)">
            <g id="Page-1">
                <g id="Group-127" transform="translate(125.000000, 44.000000)">
                    <mask id="mask-2" fill="white">
                        <use xlink:href="#path-1"></use>
                    </mask>
                    <g id="Clip-126"></g>
                    <polygon id="Fill-125" fill="#297FCA" mask="url(#mask-2)" points="-4.1032 33.965 112.8968 33.965 112.8968 -4.035 -4.1032 -4.035"></polygon>
                </g>
            </g>
        </g>
    </g>
</svg>