<svg width="30" height="30" viewBox="0 0 30 30" xmlns="http://www.w3.org/2000/svg" xmlns:xlink="http://www.w3.org/1999/xlink"><defs><path d="M15 0c8.27 0 15 6.73 15 15s-6.73 15-15 15S0 23.27 0 15 6.73 0 15 0zm0 28.742c7.577 0 13.742-6.165 13.742-13.742 0-7.578-6.165-13.743-13.742-13.743C7.423 1.257 1.258 7.422 1.258 15c0 7.577 6.165 13.742 13.742 13.742zM23.094 9.16c.248-.242.647-.237.89.012.242.25.237.647-.013.89L12.9 20.84c-.04.04-.088.06-.134.087-.023.013-.043.033-.067.043-.077.03-.157.048-.237.048-.08 0-.16-.017-.237-.048-.025-.01-.045-.03-.067-.043-.047-.027-.097-.048-.136-.087L6.03 15.003c-.25-.243-.256-.64-.014-.89.243-.248.64-.253.89-.012l5.557 5.41 10.63-10.35z" id="a"/></defs><g fill="none" fill-rule="evenodd"><mask id="b" fill="#fff"><use xlink:href="#a"/></mask><path fill="#3FA2F7" mask="url(#b)" d="M-5 35h40V-5H-5"/></g></svg>