<svg width="44" height="30" viewBox="0 0 44 30" xmlns="http://www.w3.org/2000/svg" xmlns:xlink="http://www.w3.org/1999/xlink"><defs><path d="M18.102 13.56c1.386.545 2.432 1.405 3.143 2.583.704 1.175 1.058 2.606 1.058 4.288 0 1.735-.403 3.29-1.214 4.667-.513.91-1.154 1.678-1.925 2.302-.866.715-1.888 1.202-3.072 1.47-1.18.264-2.46.392-3.84.392H0V0h13.14c3.316.054 5.663 1.09 7.047 3.118.83 1.245 1.247 2.732 1.247 4.466 0 1.784-.417 3.224-1.258 4.31-.47.607-1.16 1.164-2.074 1.665zM5.422 5.08v6.458h6.61c1.178 0 2.137-.242 2.877-.727.734-.484 1.104-1.34 1.104-2.566 0-1.366-.486-2.267-1.46-2.705-.842-.305-1.914-.46-3.214-.46H5.42zm9.355 18.59c1.193-.642 1.787-1.855 1.787-3.654 0-1.525-.574-2.57-1.73-3.14-.647-.318-1.555-.486-2.718-.496H5.42v7.804h6.602c1.18 0 2.1-.173 2.755-.515zM28.115 1.363h11.652v3.64H28.115v-3.64zm14.098 9.9c.83 1.287 1.363 2.78 1.605 4.475.144.99.2 2.427.177 4.295h-14.65c.088 2.17.78 3.69 2.106 4.564.802.542 1.768.814 2.9.814 1.193 0 2.168-.33 2.916-.99.41-.36.774-.856 1.084-1.49h5.368c-.142 1.28-.794 2.586-1.947 3.91C39.97 28.95 37.45 30 34.207 30c-2.678 0-5.04-.886-7.08-2.662-2.052-1.773-3.072-4.664-3.072-8.66 0-3.75.924-6.627 2.77-8.63 1.85-1.996 4.24-3 7.188-3 1.75 0 3.327.338 4.728 1.015 1.406.674 2.562 1.743 3.473 3.2zM29.473 16.3h9.063c-.095-1.502-.566-2.638-1.4-3.42-.842-.777-1.88-1.164-3.122-1.164-1.345 0-2.395.412-3.137 1.236-.743.824-1.21 1.94-1.403 3.35z" id="a"/></defs><g fill="none" fill-rule="evenodd"><mask id="b" fill="#fff"><use xlink:href="#a"/></mask><path fill="#3FA2F7" mask="url(#b)" d="M-5 35h54V-5H-5"/></g></svg>