<svg width="32" height="30" viewBox="0 0 32 30" xmlns="http://www.w3.org/2000/svg" xmlns:xlink="http://www.w3.org/1999/xlink"><defs><path d="M31.117.555c-.49 1.768-1.53 3.252-2.887 4.19 1.328-.184 2.594-.592 3.77-1.193-.877 1.518-1.99 2.852-3.273 3.92.01.322.016.65.016.98C28.743 18.463 22.14 30 10.063 30 6.36 30 2.906 28.746 0 26.6c.513.07 1.036.104 1.566.104 3.075 0 5.907-1.21 8.154-3.243-2.874-.058-5.297-2.248-6.132-5.256.4.09.812.135 1.235.135.6 0 1.18-.09 1.73-.268-3.006-.694-5.27-3.756-5.27-7.427v-.092c.888.563 1.902.907 2.977.944C2.497 10.14 1.34 7.82 1.34 5.194c0-1.387.322-2.69.887-3.812 3.24 4.588 8.077 7.6 13.533 7.916-.112-.555-.17-1.13-.17-1.725C15.59 3.39 18.53 0 22.155 0c1.89 0 3.597.92 4.79 2.39 1.5-.338 2.904-.968 4.173-1.835z" id="a"/></defs><g fill="none" fill-rule="evenodd"><mask id="b" fill="#fff"><use xlink:href="#a"/></mask><path fill="#3FA2F7" mask="url(#b)" d="M-5 35h42V-5H-5"/></g></svg>