<svg width="30" height="30" viewBox="0 0 30 30" xmlns="http://www.w3.org/2000/svg" xmlns:xlink="http://www.w3.org/1999/xlink"><defs><path d="M26.434 0C28.404 0 30 1.592 30 3.558v22.884C30 28.407 28.404 30 26.434 30H3.566C1.596 30 0 28.407 0 26.442V3.558C0 1.592 1.596 0 3.566 0h22.868zm-4.87 4.687V7.5c0 .517.42.937.936.937h2.812c.518 0 .938-.42.938-.937V4.687c0-.517-.42-.937-.938-.937H22.5c-.517 0-.937.42-.937.937zm-6.53 4.592c-3.185 0-5.768 2.577-5.768 5.755 0 3.18 2.583 5.755 5.77 5.755 3.185 0 5.768-2.576 5.768-5.755 0-3.178-2.583-5.756-5.77-5.756zM27.19 26.25V12.187h-3.75c.605.724.724 2.015.724 2.848 0 5.02-4.095 9.105-9.127 9.105-5.032 0-9.126-4.085-9.126-9.105 0-.833.164-2.145.652-2.848h-3.75V26.25c0 .517.42.938.938.938h22.5c.518 0 .938-.42.938-.938z" id="a"/></defs><g fill="none" fill-rule="evenodd"><mask id="b" fill="#fff"><use xlink:href="#a"/></mask><path fill="#3FA2F7" mask="url(#b)" d="M-5 35h40V-5H-5"/></g></svg>