<svg width="108" height="29" viewBox="0 0 108 29" xmlns="http://www.w3.org/2000/svg" xmlns:xlink="http://www.w3.org/1999/xlink"><defs><path d="M15.02.965h.175c7.808.047 14.124 6.297 14.124 14 0 7.732-6.364 14-14.212 14-7.85 0-14.21-6.268-14.21-14 0-7.703 6.314-13.953 14.122-14zm92.567 11.64h-1.46l-1.848 5.29-1.914-5.29h-1.768l2.845 7.474-1.318 3.572h1.672l3.79-10.212v-.835zM15.107 26.89c6.686 0 12.106-5.338 12.106-11.925 0-6.586-5.42-11.926-12.105-11.926-6.686 0-12.106 5.34-12.106 11.925 0 6.587 5.42 11.926 12.106 11.926zm-4.044-7.334c-1.145-1.094-1.727-2.62-1.745-4.6 0-1.96.582-3.488 1.727-4.582 1.145-1.093 2.545-1.63 4.18-1.63 1.328 0 2.437.31 3.328.953.873.643 1.49 1.562 1.818 2.725l-1.89.452c-.327-.8-.745-1.39-1.254-1.753-.49-.38-1.163-.555-2-.555-1.127 0-2.054.365-2.763 1.128-.727.747-1.09 1.84-1.09 3.263 0 1.424.363 2.517 1.09 3.28.71.747 1.636 1.13 2.763 1.13.836 0 1.51-.175 2-.557.51-.365.927-.955 1.254-1.754l1.89.452c-.326 1.163-.926 2.082-1.817 2.725-.89.642-2 .954-3.327.954-1.636 0-3.036-.538-4.163-1.63zm28.41-4.548l-.016-.015c0-1.763.515-3.136 1.528-4.12 1.012-.982 2.25-1.466 3.697-1.466 1.174 0 2.155.28 2.942.858.772.577 1.32 1.404 1.608 2.45l-1.672.405c-.29-.717-.66-1.248-1.11-1.576-.433-.343-1.028-.5-1.768-.5-.997 0-1.816.33-2.443 1.015-.645.67-.966 1.653-.966 2.933 0 1.28.322 2.262.965 2.95.626.67 1.445 1.013 2.442 1.013.74 0 1.335-.156 1.77-.5.45-.327.82-.858 1.108-1.575l1.672.406c-.29 1.046-.82 1.873-1.608 2.45-.787.577-1.768.858-2.942.858-1.447 0-2.685-.483-3.68-1.466-1.014-.983-1.53-2.357-1.53-4.12zm11.142 1.53c0-1.14.353-2.107 1.077-2.887.723-.78 1.688-1.17 2.894-1.17 1.22 0 2.186.39 2.91 1.17.707.78 1.077 1.748 1.077 2.887 0 1.14-.37 2.107-1.077 2.887-.724.765-1.69 1.155-2.91 1.155-1.206 0-2.17-.39-2.894-1.156-.724-.78-1.077-1.748-1.077-2.887zm1.768 0c0 .717.193 1.326.595 1.856.386.515.932.78 1.624.78.707 0 1.254-.265 1.64-.78.385-.53.594-1.14.594-1.857 0-.717-.21-1.326-.594-1.856-.386-.514-.933-.764-1.64-.764-.692 0-1.238.25-1.624.765-.402.53-.595 1.14-.595 1.857zm8.376 3.93v-7.83h1.67v1.34c.644-.982 1.464-1.466 2.445-1.466.53 0 1.013.14 1.43.437.42.295.692.685.805 1.17.273-.516.643-.922 1.077-1.202.434-.28.916-.422 1.447-.422.74 0 1.302.203 1.704.64.418.437.61 1.014.61 1.716v5.633h-1.67V15.21c0-.42-.114-.732-.323-.95-.21-.235-.498-.328-.868-.328-.53 0-.98.296-1.334.92-.37.61-.563 1.436-.563 2.466v3.15h-1.672v-5.257c0-.42-.113-.748-.322-.966-.21-.22-.498-.328-.868-.328-.53 0-.98.312-1.35.952-.37.624-.547 1.498-.547 2.62v2.98h-1.67zm13.84 3.184V12.59h1.673v.905c.16-.25.434-.5.853-.702.4-.22.852-.328 1.35-.328 1.174 0 2.074.36 2.685 1.077.612.717.917 1.716.917 2.995 0 1.25-.305 2.247-.916 2.965-.626.718-1.526 1.092-2.716 1.092-.466 0-.9-.11-1.286-.296-.386-.187-.676-.422-.885-.702v4.056H74.6zm1.593-7.13h-.032c0 .796.194 1.435.58 1.92.386.467.884.7 1.495.7.61 0 1.11-.233 1.495-.7.386-.485.58-1.124.58-1.92 0-.796-.178-1.436-.564-1.904-.386-.483-.884-.717-1.495-.717-.61 0-1.108.235-1.494.718-.386.468-.563 1.108-.563 1.904zm7.395 1.685h-.016c0-.796.322-1.436.98-1.888.644-.454 1.48-.688 2.54-.688h1.4v-.343c0-.47-.16-.812-.45-1.03-.306-.22-.675-.328-1.142-.328-.74 0-1.238.343-1.51 1.03l-1.528-.313c.177-.656.53-1.186 1.077-1.576.562-.39 1.22-.578 1.976-.578 2.17 0 3.248 1.03 3.248 3.105v4.885H88.75l-.178-1.03c-.562.765-1.398 1.155-2.492 1.14-.723 0-1.318-.204-1.784-.61-.466-.405-.708-.998-.708-1.778zm1.753 0c0 .296.08.515.258.686.177.188.418.28.756.28.562 0 1.06-.186 1.495-.53.417-.358.626-.842.626-1.48v-.173h-1.463c-.515 0-.917.11-1.222.328-.288.218-.45.514-.45.89zm7.187 2.262v-7.85H94.2v1.343c.29-.468.674-.843 1.14-1.092.467-.265.965-.39 1.496-.39.707 0 1.286.203 1.72.61.434.42.643.998.643 1.747v5.632h-1.673V15.35c0-.952-.402-1.436-1.254-1.436-.546 0-1.045.312-1.447.92-.418.61-.627 1.42-.627 2.45v3.183h-1.673z" id="a"/></defs><g fill="none" fill-rule="evenodd"><mask id="b" fill="#fff"><use xlink:href="#a"/></mask><path fill="#297FCA" mask="url(#b)" d="M-4.103 33.965h117v-38h-117"/></g></svg>