<svg width="400" height="400" viewBox="0 0 400 400" xmlns="http://www.w3.org/2000/svg" xmlns:xlink="http://www.w3.org/1999/xlink"><title>logo_N_positivo</title><defs><path id="a" d="M.003 228.57H200.78V6.425H.004V228.57z"/></defs><g fill="none" fill-rule="evenodd"><g transform="translate(50 83.72)"><mask id="b" fill="#fff"><use xlink:href="#a"/></mask><path d="M200.78 6.424h-50.863v100.793c0 23.493 1.007 48.564 1.007 48.564L55.64 6.425H.002V164.14h50.85v-35.994c0-23.507-1.007-50.215-1.007-50.215l97.507 150.644h53.428V6.424z" fill="#15161C" mask="url(#b)"/></g><path fill="#0098B0" d="M348.298 116.573l-20.714 5 14.285 17.864-12.85 9-11.15-19-11.008 19-12.864-9 14.286-17.864-20.715-5 5.006-15 18.865 7.857-1.714-19.286h16.43l-1.85 19.286 19-7.857"/></g></svg>